<svg width="72" height="72" viewBox="0 0 72 72" fill="none" xmlns="http://www.w3.org/2000/svg">
<g clip-path="url(#clip0_2_64)">
<mask id="mask0_2_64" style="mask-type:luminance" maskUnits="userSpaceOnUse" x="0" y="0" width="72" height="72">
<path d="M72 0H0V72H72V0Z" fill="white"/>
</mask>
<g mask="url(#mask0_2_64)">
<path d="M34.7349 44.8662C33.2746 41.3563 30.5461 38.525 27.0926 36.9359L2.59716 27.7714C1.80927 27.4831 1.13191 26.9545 0.660873 26.2603C0.189832 25.566 -0.0510627 24.7413 -0.0277513 23.9026C-0.00443998 23.064 0.281898 22.2539 0.790777 21.5869C1.29966 20.9199 2.00533 20.4297 2.80802 20.1857L66.8006 0.190232C67.497 -0.0283764 68.2406 -0.0519522 68.9493 0.122065C69.6585 0.296081 70.3065 0.661036 70.8229 1.17731C71.3387 1.69357 71.7038 2.34142 71.8777 3.05049C72.052 3.75956 72.0283 4.50276 71.8098 5.19938L51.8143 69.192C51.568 69.9794 51.0845 70.6716 50.4297 71.1735C49.7749 71.6755 48.981 71.9625 48.1566 71.9959C47.3322 72.0288 46.5178 71.8066 45.8247 71.3592C45.1317 70.9113 44.5939 70.2607 44.2851 69.4954C44.0623 68.9467 40.8789 60.7371 34.7349 44.8662Z" fill="#4374E5"/>
</g>
</g>
<defs>
<clipPath id="clip0_2_64">
<rect width="72" height="72" fill="white"/>
</clipPath>
</defs>
</svg>
